<?xml version="1.0" encoding="UTF-8" standalone="no"?>
<!-- Created with Inkscape (http://www.inkscape.org/) -->

<svg
   xmlns:dc="http://purl.org/dc/elements/1.1/"
   xmlns:cc="http://creativecommons.org/ns#"
   xmlns:rdf="http://www.w3.org/1999/02/22-rdf-syntax-ns#"
   xmlns:svg="http://www.w3.org/2000/svg"
   xmlns="http://www.w3.org/2000/svg"
   xmlns:sodipodi="http://sodipodi.sourceforge.net/DTD/sodipodi-0.dtd"
   xmlns:inkscape="http://www.inkscape.org/namespaces/inkscape"
   width="1920px"
   height="1080px"
   viewBox="0 0 1920 1080"
   version="1.1"
   id="SVGRoot"
   inkscape:version="0.92.4 (5da689c313, 2019-01-14)"
   sodipodi:docname="2.svg">
  <defs
     id="defs1444" />
  <sodipodi:namedview
     id="base"
     pagecolor="#ffffff"
     bordercolor="#666666"
     borderopacity="1.0"
     inkscape:pageopacity="0.0"
     inkscape:pageshadow="2"
     inkscape:zoom="0.24748737"
     inkscape:cx="314.67846"
     inkscape:cy="538.84953"
     inkscape:document-units="px"
     inkscape:current-layer="layer1"
     showgrid="false"
     inkscape:window-width="1366"
     inkscape:window-height="706"
     inkscape:window-x="-8"
     inkscape:window-y="-8"
     inkscape:window-maximized="1" />
  <metadata
     id="metadata1447">
    <rdf:RDF>
      <cc:Work
         rdf:about="">
        <dc:format>image/svg+xml</dc:format>
        <dc:type
           rdf:resource="http://purl.org/dc/dcmitype/StillImage" />
        <dc:title></dc:title>
      </cc:Work>
    </rdf:RDF>
  </metadata>
  <g
     inkscape:label="Layer 1"
     inkscape:groupmode="layer"
     id="layer1">
    <g
       id="g5854"
       transform="translate(-16.162441,48.487322)">
      <path
         sodipodi:nodetypes="sssssssss"
         inkscape:connector-curvature="0"
         id="path2097"
         d="m 1589.2624,255.60588 c 34.3438,98.77049 1.887,216.23399 -90.2304,326.54988 -92.1174,110.31589 -236.3495,204.44766 -400.967,261.68739 C 933.44754,901.08288 761.92931,916.7418 621.2424,887.37512 480.55549,858.00843 382.22424,786.02172 347.88041,687.25122 313.53658,588.48073 345.99343,471.01723 438.11081,360.70134 530.2282,250.38546 745.88892,356.2537 910.50641,299.01397 1075.1239,241.77424 1175.2135,26.115333 1315.9004,55.482013 1456.5873,84.848689 1554.9186,156.8354 1589.2624,255.60588 Z"
         style="opacity:1;fill:#803300;fill-opacity:1;stroke-width:18.89763832;stroke-linecap:round;stroke-linejoin:bevel;stroke-miterlimit:4;stroke-dasharray:none;paint-order:stroke fill markers" />
      <path
         sodipodi:nodetypes="sssss"
         inkscape:connector-curvature="0"
         id="path2100"
         d="m 1317.1428,298.57144 c 7.1429,58.21178 -49.5054,40.00001 -100,40 -50.4946,-3e-5 -71.4285,-0.35967 -71.4285,-34.28571 0,-33.92605 79.9999,-67.14286 79.9999,-67.14286 44.8565,-23.18624 87.2967,27.75506 91.4286,61.42857 z"
         style="opacity:1;fill:#2b1100;fill-opacity:1;stroke-width:18.89763832;stroke-linecap:round;stroke-linejoin:bevel;stroke-miterlimit:4;stroke-dasharray:none;paint-order:stroke fill markers" />
      <path
         sodipodi:nodetypes="sssss"
         inkscape:connector-curvature="0"
         id="path2100-5"
         d="m 842.55071,758.00575 c 7.1429,58.21177 -49.5054,40 -100,39.99999 -50.4946,-3e-5 -71.4285,-0.35967 -71.4285,-34.2857 0,-33.92605 79.9999,-67.14286 79.9999,-67.14286 44.8565,-23.18624 87.2967,27.75506 91.4286,61.42857 z"
         style="opacity:1;fill:#2b1100;fill-opacity:1;stroke-width:18.89763832;stroke-linecap:round;stroke-linejoin:bevel;stroke-miterlimit:4;stroke-dasharray:none;paint-order:stroke fill markers" />
      <path
         sodipodi:nodetypes="sssss"
         inkscape:connector-curvature="0"
         id="path2100-4"
         d="m 1211.509,643.99107 c 7.1429,58.21178 -49.5054,40.00001 -100,40 -50.4946,-3e-5 -71.4285,-0.35967 -71.4285,-34.28571 0,-33.92605 79.9999,-67.14286 79.9999,-67.14286 44.8565,-23.18624 87.2967,27.75506 91.4286,61.42857 z"
         style="opacity:1;fill:#2b1100;fill-opacity:1;stroke-width:18.89763832;stroke-linecap:round;stroke-linejoin:bevel;stroke-miterlimit:4;stroke-dasharray:none;paint-order:stroke fill markers" />
      <path
         sodipodi:nodetypes="sssss"
         inkscape:connector-curvature="0"
         id="path2100-6"
         d="m 762.63368,508.89732 c 7.1429,58.21177 -49.5054,40 -100,39.99999 -50.4946,-3e-5 -71.4285,-0.35967 -71.4285,-34.2857 0,-33.92605 79.9999,-67.14286 79.9999,-67.14286 44.8565,-23.18624 87.2967,27.75506 91.4286,61.42857 z"
         style="opacity:1;fill:#2b1100;fill-opacity:1;stroke-width:18.89763832;stroke-linecap:round;stroke-linejoin:bevel;stroke-miterlimit:4;stroke-dasharray:none;paint-order:stroke fill markers" />
      <path
         sodipodi:nodetypes="sssss"
         inkscape:connector-curvature="0"
         id="path2100-8"
         d="m 1079.6936,412.29146 c 7.1429,58.21178 -49.5054,40.00001 -99.99996,40 -50.4946,-3e-5 -71.4285,-0.35967 -71.4285,-34.28571 0,-33.92605 79.9999,-67.14286 79.9999,-67.14286 44.85646,-23.18624 87.29666,27.75506 91.42856,61.42857 z"
         style="opacity:1;fill:#2b1100;fill-opacity:1;stroke-width:18.89763832;stroke-linecap:round;stroke-linejoin:bevel;stroke-miterlimit:4;stroke-dasharray:none;paint-order:stroke fill markers" />
      <path
         inkscape:connector-curvature="0"
         id="path2008"
         d="m 615.89258,491.4375 c -16.0625,0 -28.59375,4.625 -37.59375,13.875 -6.6967,6.93084 -10.88351,15.91494 -12.5625,26.95117 h 21.21094 c 0.21782,-1.00058 0.45528,-1.98553 0.72656,-2.9414 h -8.15039 a 4.1496197,4.1496197 0 1 1 0,-8.29883 h 11.52539 c 0.93912,-1.68356 1.99924,-3.26666 3.1875,-4.74219 5.6875,-7.125 13.28125,-10.6875 22.78125,-10.6875 6.5625,0 15.0625,1.53125 25.5,4.59375 v -15.46875 c -9.8125,-2.1875 -18.6875,-3.28125 -26.625,-3.28125 z m -50.64844,59.72266 c 1.204,12.34931 5.60916,22.82177 13.24219,31.40234 9.0625,10.1875 20.46875,15.28125 34.21875,15.28125 8.6875,0 19,-1.8125 30.9375,-5.4375 v -15.9375 c -8.9375,4.3125 -17.625,6.46875 -26.0625,6.46875 -9.5,0 -17.1875,-3.53125 -23.0625,-10.59375 -1.94034,-2.33253 -3.55278,-4.90864 -4.85156,-7.71875 -0.0885,-0.19145 -0.16448,-0.39228 -0.25,-0.58594 h -9.4043 a 4.2178614,4.2178614 0 1 1 0,-8.43554 h 6.75195 c -0.29259,-1.43584 -0.52295,-2.91798 -0.69531,-4.44336 z"
         style="font-style:normal;font-variant:normal;font-weight:normal;font-stretch:normal;font-size:192px;line-height:1.25;font-family:'Lucida Sans Unicode';-inkscape-font-specification:'Lucida Sans Unicode';letter-spacing:0px;word-spacing:0px;fill:#ff0000;fill-opacity:1;stroke:none;stroke-width:0.99999994" />
      <path
         inkscape:connector-curvature="0"
         id="path2010"
         d="m 671.20508,447.46875 v 18.78516 h 18.46875 v -18.78516 z m 0,37.68164 V 595.5 h 18.46875 v -65.90625 c 10,-14.8125 20.65625,-22.21875 31.96875,-22.21875 5.125,0 8.78125,1.625 10.96875,4.875 2.25,3.1875 3.375,8.5625 3.375,16.125 V 595.5 h 18.46875 v -73.125 c 0,-9.4375 -2.625,-16.9375 -7.875,-22.5 -5.1875,-5.625 -12.21875,-8.4375 -21.09375,-8.4375 -14.125,0 -26.0625,7.125 -35.8125,21.375 v -27.66211 z"
         style="font-style:normal;font-variant:normal;font-weight:normal;font-stretch:normal;font-size:192px;line-height:1.25;font-family:'Lucida Sans Unicode';-inkscape-font-specification:'Lucida Sans Unicode';letter-spacing:0px;word-spacing:0px;fill:#ff0000;fill-opacity:1;stroke:none;stroke-width:0.99999994" />
      <path
         inkscape:connector-curvature="0"
         id="path2012"
         d="m 840.79883,491.4375 c -13.9375,0 -24.5625,7.125 -31.875,21.375 v -19.125 h -18.46875 v 37.73242 h 18.46875 V 528.375 c 7.875,-13.875 17.65625,-20.8125 29.34375,-20.8125 2.4375,0 5.25,0.53125 8.4375,1.59375 v -17.25 c -2.0625,-0.3125 -4.03125,-0.46875 -5.90625,-0.46875 z m -50.34375,58.87891 V 595.5 h 18.46875 v -45.18359 z"
         style="font-style:normal;font-variant:normal;font-weight:normal;font-stretch:normal;font-size:192px;line-height:1.25;font-family:'Lucida Sans Unicode';-inkscape-font-specification:'Lucida Sans Unicode';letter-spacing:0px;word-spacing:0px;fill:#ff0000;fill-opacity:1;stroke:none;stroke-width:0.99999994" />
      <path
         inkscape:connector-curvature="0"
         id="path2014"
         d="m 852.23633,493.6875 31.16797,80.58984 h 34.25 l 32.26953,-80.58984 h -17.4375 l -31.125,76.6875 -29.15625,-76.6875 z m 38.47461,99.48633 0.90039,2.32617 -16.5,37.03125 h 19.21875 l 15.75976,-39.35742 z"
         style="font-style:normal;font-variant:normal;font-weight:normal;font-stretch:normal;font-size:192px;line-height:1.25;font-family:'Lucida Sans Unicode';-inkscape-font-specification:'Lucida Sans Unicode';letter-spacing:0px;word-spacing:0px;fill:#ff0000;fill-opacity:1;stroke:none;stroke-width:0.99999994" />
      <path
         inkscape:connector-curvature="0"
         id="path2016"
         d="m 1001.7676,491.4375 c -10.93754,0 -19.56252,2.5625 -25.87502,7.6875 -6.25,5.0625 -9.375,12.03125 -9.375,20.90625 0,6.76895 2.37901,12.67143 7.09961,17.71875 32.54321,3.75368 51.31651,15.16972 60.74221,30.76758 0.018,-0.44056 0.033,-0.88149 0.033,-1.33008 0,-7.0625 -2.0937,-12.9375 -6.2813,-17.625 -4.1874,-4.75 -11.3124,-9.25 -21.375,-13.5 l -8.90622,-3.75 c -9,-3.8125 -13.5,-8.5 -13.5,-14.0625 0,-3.9375 1.59375,-7.0625 4.78125,-9.375 3.25,-2.375 7.56252,-3.5625 12.93747,-3.5625 6.125,0 14.3437,1.53125 24.6563,4.59375 v -15.375 l -3.8438,-0.75 c -8.375,-1.5625 -15.4063,-2.34375 -21.0937,-2.34375 z"
         style="font-style:normal;font-variant:normal;font-weight:normal;font-stretch:normal;font-size:192px;line-height:1.25;font-family:'Lucida Sans Unicode';-inkscape-font-specification:'Lucida Sans Unicode';letter-spacing:0px;word-spacing:0px;fill:#ff0000;fill-opacity:1;stroke:none;stroke-width:0.99999994" />
      <path
         d="m 1120.0804,582.5625 q -16.5938,15.28125 -31.9688,15.28125 -12.6562,0 -21,-7.875 -8.3437,-7.96875 -8.3437,-20.0625 0,-16.6875 13.9687,-25.59375 14.0625,-9 40.3125,-9 h 4.3125 v -12.28125 q 0,-17.71875 -18.4687,-17.71875 -14.3438,0 -31.3125,9 v -15.28125 q 18.6562,-7.59375 35.1562,-7.59375 16.9688,0 25.0313,7.78125 8.0625,7.6875 8.0625,23.8125 v 46.125 q 0,15.84375 9.75,15.84375 1.2187,0 3.5625,-0.375 l 1.3125,10.21875 q -6.2813,3 -13.875,3 -12.9375,0 -16.5,-15.28125 z m -2.7188,-10.03125 V 546.1875 L 1111.4554,546 q -15.375,0 -24.8438,5.71875 -9.375,5.71875 -9.375,15.1875 0,6.65625 4.6875,11.25 4.6875,4.59375 11.4375,4.59375 11.5313,0 24,-10.21875 z"
         style="font-style:normal;font-variant:normal;font-weight:normal;font-stretch:normal;font-size:192px;line-height:1.25;font-family:'Lucida Sans Unicode';-inkscape-font-specification:'Lucida Sans Unicode';letter-spacing:0px;word-spacing:0px;fill:#ff0000;fill-opacity:1;stroke:none;stroke-width:0.99999994"
         id="path2018"
         inkscape:connector-curvature="0" />
      <path
         inkscape:connector-curvature="0"
         id="path2020"
         d="m 1173.7051,447.46875 v 102.84766 h 18.4687 V 447.46875 Z m 0,121.74414 V 595.5 h 18.4687 v -26.28711 z"
         style="font-style:normal;font-variant:normal;font-weight:normal;font-stretch:normal;font-size:192px;line-height:1.25;font-family:'Lucida Sans Unicode';-inkscape-font-specification:'Lucida Sans Unicode';letter-spacing:0px;word-spacing:0px;fill:#ff0000;fill-opacity:1;stroke:none;stroke-width:0.99999994" />
      <path
         d="M 1229.2054,595.5 V 493.6875 h 18.4687 V 595.5 Z m 0,-120.28125 V 456.75 h 18.4687 v 18.46875 z"
         style="font-style:normal;font-variant:normal;font-weight:normal;font-stretch:normal;font-size:192px;line-height:1.25;font-family:'Lucida Sans Unicode';-inkscape-font-specification:'Lucida Sans Unicode';letter-spacing:0px;word-spacing:0px;fill:#ff0000;fill-opacity:1;stroke:none;stroke-width:0.99999994"
         id="path2022"
         inkscape:connector-curvature="0" />
      <path
         d="m 1280.9554,591.9375 v -16.96875 q 18.0937,9 31.5,9 7.9687,0 13.2187,-4.3125 5.25,-4.3125 5.25,-10.78125 0,-9.46875 -14.7187,-15.65625 l -10.7813,-4.59375 q -23.9062,-9.9375 -23.9062,-28.59375 0,-13.3125 9.375,-20.90625 9.4687,-7.6875 25.875,-7.6875 8.5312,0 21.0937,2.34375 l 3.8438,0.75 v 15.375 q -15.4688,-4.59375 -24.6563,-4.59375 -8.0625,0 -12.9375,3.5625 -4.7812,3.46875 -4.7812,9.375 0,8.34375 13.5,14.0625 l 8.9062,3.75 q 15.0938,6.375 21.375,13.5 6.2813,7.03125 6.2813,17.625 0,13.40625 -10.5938,22.03125 -10.5937,8.625 -27.0937,8.625 -12.6563,0 -30.75,-5.90625 z"
         style="font-style:normal;font-variant:normal;font-weight:normal;font-stretch:normal;font-size:192px;line-height:1.25;font-family:'Lucida Sans Unicode';-inkscape-font-specification:'Lucida Sans Unicode';letter-spacing:0px;word-spacing:0px;fill:#ff0000;fill-opacity:1;stroke:none;stroke-width:0.99999994"
         id="path2024"
         inkscape:connector-curvature="0" />
    </g>
  </g>
</svg>
